# This file uses centimeters as units for non-parametric coordinates.

mtllib Split.mtl
g default
v 49.465439 -0.781138 -240.045288
v 29.139797 -0.781138 -172.773224
v 49.465439 -195.580780 -240.045288
v 29.139797 -195.580780 -172.773224
v 23.534901 -0.781138 -172.773239
v 24.367212 -0.781138 -172.075333
v 24.367212 -0.083231 -172.773239
v 28.307484 -0.083231 -172.773239
v 28.307484 -0.781138 -172.075333
v 3.209261 -0.781138 -233.065521
v 3.907168 -0.083231 -233.065521
v 3.907164 -0.781138 -233.763428
v 33.159645 -0.970506 -234.422714
v 32.455791 -0.713788 -233.763428
v 33.857552 -0.083231 -232.878647
v 24.367212 -195.580780 -172.075333
v 23.534901 -195.580780 -172.773239
v 28.307484 -195.580780 -172.075333
v 3.209261 -195.580780 -233.065521
v 3.907164 -195.580780 -233.763428
v 32.461739 -195.580780 -233.763428
v 33.159645 -195.580780 -234.461334
v 48.767532 -0.083231 -240.045288
v 48.767532 -0.781138 -240.743195
v 48.767532 -195.580780 -240.743195
v 33.159645 -0.781138 -240.045288
v 33.857552 -0.083231 -240.045288
v 33.857552 -0.781138 -240.743195
v 33.159645 -195.580780 -240.045288
v 33.857552 -195.580780 -240.743195
v 18.181479 -98.147285 -233.763428
v 18.181479 -0.747463 -233.763428
vt 0.734056 0.725904
vt 0.734056 0.250320
vt 0.898295 0.725904
vt 0.898295 0.250320
vt 0.200439 0.975397
vt 0.197802 0.975169
vt 0.250405 0.828335
vt 0.248010 0.828118
vt 0.408749 0.734543
vt 0.406339 0.734543
vt 0.408749 0.258961
vt 0.406339 0.258961
vt 0.197990 0.977542
vt 0.188189 0.975154
vt 0.187986 0.977488
vt 0.185549 0.975351
vt 0.138427 0.810869
vt 0.136029 0.811058
vt 0.420778 0.734543
vt 0.418368 0.734543
vt 0.420778 0.258961
vt 0.418368 0.258961
vt 0.995491 0.478814
vt 0.993083 0.478814
vt 0.995468 0.003226
vt 0.993058 0.003227
vt 0.248071 0.825727
vt 0.178348 0.825747
vt 0.213210 0.825737
vt 0.174845 0.828363
vt 0.174545 0.810741
vt 0.177394 0.824277
vt 0.176878 0.810511
vt 0.923383 0.478982
vt 0.921028 0.478355
vt 0.923344 0.003231
vt 0.920934 0.003231
vt 0.138313 0.808490
vt 0.174613 0.808355
vt 0.589384 0.728510
vt 0.586975 0.728510
vt 0.589384 0.252925
vt 0.586975 0.252925
vt 0.907302 0.478817
vt 0.904892 0.478817
vt 0.907302 0.003231
vt 0.904892 0.003231
vt 0.958220 0.241104
vt 0.958233 0.478898
vt 0.734056 0.725904
vt 0.734056 0.250320
vt 0.898295 0.725904
vt 0.898295 0.250320
vt 0.625787 0.728510
vt 0.625787 0.252925
vn 0.954802 0.004613 0.297206
vn 0.954810 0.000000 0.297217
vn 0.960738 0.002974 0.277442
vn 0.960744 0.000000 0.277435
vn -0.944761 0.004627 0.327727
vn -0.043905 0.998864 0.018537
vn -0.951912 0.002906 0.306358
vn -0.032631 0.999464 -0.002635
vn -0.144569 0.003348 0.989489
vn -0.144695 0.000000 0.989476
vn -0.944766 0.000000 0.327746
vn 0.097784 0.994516 0.037098
vn 0.144561 0.003348 0.989490
vn 0.097533 0.995185 0.009718
vn 0.144695 0.000000 0.989476
vn -0.031443 0.004666 -0.999495
vn -0.951921 0.000000 0.306345
vn -0.024395 0.000000 -0.999702
vn -0.055728 0.022233 -0.998199
vn -0.000016 0.007120 -0.999975
vn -0.000893 0.999996 -0.002828
vn -0.037312 0.995521 -0.086868
vn -0.992188 0.006937 -0.124559
vn -0.993745 0.003532 -0.111621
vn -0.023816 0.000005 -0.999716
vn -0.993887 0.000022 -0.110398
vn 0.044620 0.003513 -0.998998
vn -0.044620 0.003513 -0.998998
vn 0.044671 0.000000 -0.999002
vn -0.993876 -0.000000 -0.110499
vn -0.044671 0.000000 -0.999002
vn 0.000000 0.000000 -1.000000
s 1
g polySurface1 Build1_low City_low
usemtl blinn1SG
f 2/1/1 4/2/2 1/3/3
f 1/3/3 4/2/2 3/4/4
f 5/5/5 7/6/6 10/7/7
f 10/7/7 7/6/6 11/8/8
f 6/9/9 5/10/5 16/11/10
f 16/11/10 5/10/5 17/12/11
f 7/6/6 6/13/9 8/14/12
f 6/13/9 9/15/13 8/14/12
f 8/14/12 2/16/1 23/17/14
f 23/17/14 2/16/1 1/18/3
f 2/19/1 9/20/13 4/21/2
f 4/21/2 9/20/13 18/22/15
f 10/23/7 12/24/16 19/25/17
f 19/25/17 12/24/16 20/26/18
f 12/27/16 11/8/8 14/28/19 32/29/20
f 14/28/19 11/8/8 15/30/21
f 15/30/21 27/31/22 13/32/23
f 13/32/23 27/31/22 26/33/24
f 14/34/19 13/35/23 21/36/25
f 21/36/25 13/35/23 22/37/26
f 23/17/14 24/38/27 27/31/22
f 27/31/22 24/38/27 28/39/28
f 24/40/27 1/41/3 25/42/29
f 25/42/29 1/41/3 3/43/4
f 26/44/24 28/45/28 29/46/30
f 29/46/30 28/45/28 30/47/31
f 6/9/9 16/11/10 9/20/13
f 9/20/13 16/11/10 18/22/15
f 8/14/12 15/30/21 7/6/6
f 7/6/6 15/30/21 11/8/8
f 31/48/32 32/49/20 14/34/19
f 20/26/18 31/48/32 14/34/19 21/36/25
f 10/50/7 19/51/17 5/52/5
f 5/52/5 19/51/17 17/53/11
f 27/31/22 15/30/21 23/17/14
f 23/17/14 15/30/21 8/14/12
f 28/54/28 24/40/27 30/55/31
f 30/55/31 24/40/27 25/42/29
f 26/44/24 29/46/30 13/35/23
f 13/35/23 29/46/30 22/37/26
f 5/5/5 6/13/9 7/6/6
f 8/14/12 9/15/13 2/16/1
f 10/7/7 11/8/8 12/27/16
f 13/32/23 14/28/19 15/30/21
f 23/17/14 1/18/3 24/38/27
f 26/33/24 27/31/22 28/39/28
f 12/24/16 32/49/20 31/48/32 20/26/18
g default
v -67.774139 -0.968873 -224.968094
v -67.774147 -1.025909 -178.511185
v -67.774147 -195.580780 -224.920135
v -67.774139 -195.580780 -178.487823
v -73.987938 -1.002526 -177.245163
v -73.366631 -0.381209 -177.245163
v -73.366623 -1.002526 -177.866486
v -68.387199 -1.189989 -177.866486
v -67.069916 -0.381209 -177.245163
v -73.366623 -195.580780 -161.560699
v -73.987938 -195.580780 -162.182022
v -73.366631 -0.381209 -162.182022
v -73.987946 -1.002526 -162.182022
v -73.366631 -1.002526 -161.560699
v -73.987938 -195.580780 -177.245163
v -73.366623 -195.580780 -177.866486
v -68.395462 -195.580780 -177.866486
v -26.167986 -0.381209 -162.182022
v -26.167986 -1.002526 -161.560699
v -25.546669 -1.002526 -162.182022
v -25.546669 -195.580780 -162.182022
v -26.167986 -195.580780 -161.560699
v -67.107307 -0.381209 -224.638718
v -67.052582 -0.968873 -225.380463
v -25.992441 -1.016489 -201.188614
v -26.146055 -0.381209 -200.583435
v -25.546669 -1.016489 -200.408585
v -67.011261 -195.580780 -225.356110
v -25.982643 -195.580780 -201.182846
v -25.546669 -195.580780 -200.419968
vt 0.009242 0.733106
vt 0.009183 0.258120
vt 0.122628 0.732924
vt 0.122509 0.258078
vt 0.979839 0.497026
vt 0.981984 0.497026
vt 0.979838 0.972072
vt 0.981983 0.972072
vt 0.011162 0.776272
vt 0.009020 0.776316
vt 0.011362 0.739320
vt 0.009201 0.739296
vt 0.010978 0.778349
vt 0.023231 0.778721
vt 0.026614 0.776423
vt 0.026496 0.892470
vt 0.024304 0.779542
vt 0.024319 0.893274
vt 0.996313 0.497083
vt 0.996265 0.972072
vt 0.994141 0.497483
vt 0.994120 0.972072
vt 0.943063 0.972072
vt 0.940917 0.972072
vt 0.943063 0.497026
vt 0.940918 0.497026
vt 0.011370 0.737171
vt 0.126743 0.739626
vt 0.126748 0.737478
vt 0.631862 0.724118
vt 0.720215 0.724307
vt 0.631829 0.726141
vt 0.720631 0.726320
vt 0.629833 0.724118
vt 0.632982 0.274391
vt 0.630951 0.274386
vt 0.728978 0.724472
vt 0.726952 0.724464
vt 0.728978 0.249334
vt 0.726832 0.249335
vt 0.026905 0.894756
vt 0.127451 0.835552
vt 0.126734 0.833495
vt 0.722290 0.724316
vt 0.723392 0.274616
vt 0.721361 0.274611
vt 0.241446 0.259389
vt 0.241444 0.734435
vt 0.126216 0.259383
vt 0.126212 0.734433
vt 0.498819 0.004788
vt 0.498572 0.120597
vt 0.025902 0.004370
vt 0.025772 0.120090
vt 0.010313 0.737281
vt 0.024955 0.894109
vn -0.999878 0.002663 -0.015403
vn -0.999868 -0.000004 -0.016271
vn -0.999917 0.005861 -0.011470
vn -0.999913 0.000000 -0.013194
vn -0.999213 0.003139 -0.039542
vn -0.112397 0.003161 -0.993658
vn -0.999216 -0.000000 -0.039582
vn -0.110512 0.000000 -0.993875
vn -0.087979 0.995562 -0.033396
vn -0.016151 0.998634 0.049684
vn -0.999213 0.003139 0.039541
vn -0.122999 0.006087 -0.992388
vn -0.004275 0.999991 -0.000745
vn -0.011909 0.999690 -0.021882
vn -0.110424 0.000005 -0.993885
vn -0.999216 -0.000000 0.039582
vn -0.012992 -0.000000 0.999916
vn -0.012978 0.003169 0.999911
vn 0.016765 0.999646 0.020649
vn 0.012978 0.003169 0.999911
vn 0.999867 0.003167 0.015977
vn 0.999929 0.003437 -0.011403
vn 0.014635 0.999847 -0.009584
vn 0.999872 0.000000 0.015988
vn 0.012992 0.000000 0.999916
vn 0.494626 0.002662 -0.869102
vn 0.493888 -0.000004 -0.869526
vn 0.515507 0.003418 -0.856878
vn 0.515369 0.000001 -0.856968
vn 0.999938 0.000001 -0.011179
s 1
g Build1_low City_low polySurface2
usemtl blinn1SG
f 33/56/33 35/57/34 34/58/35
f 34/58/35 35/57/34 36/59/36
f 37/60/37 39/61/38 47/62/39
f 47/62/39 39/61/38 48/63/40
f 38/64/41 37/65/37 44/66/42
f 44/66/42 37/65/37 45/67/43
f 39/68/38 38/64/41 40/69/44
f 40/69/44 38/64/41 41/70/45
f 41/70/45 55/71/46 34/72/35
f 34/72/35 55/71/46 33/73/33
f 34/74/35 36/75/36 40/76/44
f 40/76/44 36/75/36 49/77/47
f 43/78/48 42/79/49 45/80/43
f 45/80/43 42/79/49 46/81/50
f 44/66/42 46/82/50 50/83/51
f 50/83/51 46/82/50 51/84/52
f 52/85/53 59/86/54 50/87/51
f 50/87/51 59/86/54 58/88/55
f 52/85/53 51/89/52 53/90/56
f 53/90/56 51/89/52 54/91/57
f 33/92/33 56/93/58 35/94/34
f 35/94/34 56/93/58 60/95/59
f 56/96/58 55/71/46 57/97/60
f 57/97/60 55/71/46 58/98/55
f 57/99/60 59/86/54 61/100/61
f 61/100/61 59/86/54 62/101/62
f 38/64/41 44/66/42 41/70/45
f 41/70/45 44/66/42 50/83/51
f 39/61/38 40/76/44 48/63/40
f 48/63/40 40/76/44 49/77/47
f 37/60/37 47/62/39 45/80/43
f 45/80/43 47/62/39 43/78/48
f 46/102/50 42/103/49 51/104/52
f 51/104/52 42/103/49 54/105/57
f 55/71/46 41/70/45 58/98/55
f 58/98/55 41/70/45 50/83/51
f 56/106/58 57/107/60 60/108/59
f 60/108/59 57/107/60 61/109/61
f 52/85/53 53/90/56 59/86/54
f 59/86/54 53/90/56 62/101/62
f 37/65/37 38/64/41 39/68/38
f 34/72/35 40/69/44 41/70/45
f 44/66/42 45/67/43 46/110/50
f 50/87/51 51/89/52 52/85/53
f 33/111/33 55/71/46 56/96/58
f 57/99/60 58/88/55 59/86/54
